<?xml version="1.0" encoding="utf-8"?>
<!-- Generator: Adobe Illustrator 24.3.0, SVG Export Plug-In . SVG Version: 6.00 Build 0)  -->
<svg version="1.1" id="圖層_1" xmlns="http://www.w3.org/2000/svg" xmlns:xlink="http://www.w3.org/1999/xlink" x="0px" y="0px"
	 viewBox="0 0 29.2 29.2" style="enable-background:new 0 0 29.2 29.2;" xml:space="preserve">
<style type="text/css">
	.st0{fill:#4D4D4D;}
	.st1{fill:none;stroke:#4D4D4D;stroke-width:0.5;stroke-miterlimit:10;}
</style>
<g>
	<path class="st0" d="M29,16.1c0-0.1-0.1-0.2-0.1-0.3c-0.1-0.2-0.1-0.4-0.3-0.6c-0.4-0.7-1.1-1.1-2-1.2c-0.3,0-0.7,0-1,0
		c-0.1,0-0.2,0-0.3,0c0,0,0,0,0-0.1l0-1.4c0-0.6,0-1.3,0-1.9c0-0.8-0.4-1.5-1.1-1.8c-0.3-0.1-0.6-0.2-1-0.2c-0.6,0-1.2,0-1.8,0
		l-1.5,0l0-0.2c0-0.2,0-0.4,0-0.7c0-0.5,0-0.9-0.2-1.3c-0.4-0.8-1-1.2-1.8-1.4c0,0,0,0,0,0l0,0l-0.6,0l0,0c-0.4,0.1-0.7,0.2-1.1,0.4
		c-0.7,0.5-1,1.2-1,2c0,0.3,0,0.6,0,0.9l0,0.2h-0.1c-0.3,0-0.7,0-1,0c-0.7,0-1.5,0-2.3,0c-0.6,0-1.1,0.2-1.5,0.6
		c-0.1,0.1-0.2,0.3-0.3,0.4c0.2,0.3,0.3,0.7,0.3,1.1c0,0.6,0,1.1,0,1.7l0,1.6c0,0,0,0,0,0.1c0.1,0,0.2,0,0.3,0c0.3,0,0.6,0,1,0
		c0.9,0,1.6,0.4,2,1.2c0.1,0.2,0.2,0.4,0.3,0.6c0,0.1,0.1,0.2,0.1,0.3l0,0l0,0.6l0,0c0,0,0,0,0,0c-0.2,1-0.9,1.8-1.9,2
		c-0.3,0.1-0.6,0.1-0.9,0.1c-0.1,0-0.2,0-0.3,0c-0.1,0-0.3,0-0.4,0l-0.1,0l0,1.1c0,0.8,0,1.5,0,2.3c0,0.4-0.1,0.8-0.3,1.1
		c0.3,0.6,1,1,1.8,1c0.4,0,0.7,0,1.1,0c0.2,0,0.4,0,0.5,0l1.9,0l0-0.6l0-0.8c0-0.4,0.1-0.8,0.2-1.1c0.4-0.9,1.4-1.4,2.3-1.2
		c1,0.2,1.8,0.9,1.9,1.9c0,0.2,0,0.4,0,0.6c0,0.2,0,0.5,0,0.8l0,0.5l0.2,0c0,0,0.1,0,0.1,0l2,0l1.1,0c1.2,0,2-0.8,2-2
		c0-0.8,0-1.5,0-2.3l0-1.1l0.1,0c0.2,0,0.3,0,0.4,0c0.1,0,0.2,0,0.3,0c0.3,0,0.6,0,0.9-0.1c1-0.2,1.7-0.9,1.9-2c0,0,0,0,0,0l0,0
		L29,16.1L29,16.1z"/>
	<path class="st1" d="M9.1,19.3l0-0.6l0.1,0c0.1,0,0.2,0,0.2,0c0.1,0,0.1,0,0.2,0c0.2,0,0.3,0,0.5,0c0.6-0.1,1-0.5,1.1-1.1
		c0,0,0,0,0,0l0,0l0-0.4l0,0c0-0.1,0-0.1-0.1-0.2c0-0.1-0.1-0.2-0.1-0.4c-0.2-0.4-0.6-0.6-1.1-0.7c-0.2,0-0.4,0-0.5,0
		c-0.1,0-0.1,0-0.2,0c0,0,0,0,0,0l0-0.9c0-0.3,0-0.6,0-0.9c0-0.2-0.1-0.4-0.2-0.6c-0.1-0.2-0.3-0.3-0.5-0.4
		c-0.2-0.1-0.3-0.1-0.6-0.1c-0.4,0-0.8,0-1.3,0l-0.6,0l0-0.1c0-0.1,0-0.3,0-0.4c0-0.3,0-0.5-0.1-0.8c-0.2-0.4-0.6-0.7-1-0.8
		c0,0,0,0,0,0l0,0l-0.4,0l0,0c-0.2,0-0.4,0.1-0.6,0.2c-0.4,0.3-0.6,0.7-0.6,1.2c0,0.2,0,0.3,0,0.5l0,0.1h0c-0.2,0-0.4,0-0.6,0l0,0
		c-0.4,0-0.8,0-1.3,0c-0.3,0-0.6,0.1-0.8,0.3c-0.2,0.2-0.3,0.5-0.3,0.9c0,0.4,0,0.8,0,1.2c0,0.2,0,0.4,0,0.5v0.2l0.3,0
		c0.2,0,0.3,0,0.5,0c0.3,0,0.5,0.1,0.7,0.2c0.5,0.3,0.7,0.9,0.6,1.4c-0.1,0.6-0.6,1-1.2,1c-0.1,0-0.3,0-0.5,0h0c-0.1,0-0.2,0-0.2,0
		H0.2l0,0.1c0,0,0,0.1,0,0.1l0,0.3c0,0.5,0,1,0,1.4c0,0.7,0.5,1.2,1.2,1.2c0.2,0,0.4,0,0.6,0c0.1,0,0.2,0,0.3,0l1.1,0l0-0.8
		c0-0.2,0-0.5,0.1-0.6c0.2-0.5,0.8-0.8,1.3-0.7c0.6,0.1,1,0.5,1.1,1.1c0,0.1,0,0.2,0,0.3c0,0.1,0,0.3,0,0.4l0,0.3l0.1,0
		c0,0,0.1,0,0.1,0l1.2,0l0.6,0c0.4,0,0.8-0.2,1-0.5c0.1-0.2,0.2-0.4,0.2-0.6C9.1,20.2,9.1,19.8,9.1,19.3z"/>
</g>
</svg>
